<svg viewBox="0 0 500 500" xmlns="http://www.w3.org/2000/svg">
  <defs></defs>
  <g transform="matrix(0.1, 0, 0, -0.1, 64.326569, 272.574951)" fill="#000000" stroke="none">
    <path></path>
    <path d="M893 894 c-37 -19 -40 -26 -16 -49 19 -20 71 -15 109 10 32 21 30 31
-7 44 -41 14 -48 14 -86 -5z"></path>
    <path d="M265 853 c-23 -6 -45 -22 -45 -33 0 -30 118 -26 149 5 13 12 11 16
-13 25 -28 10 -56 11 -91 3z"></path>
    <path d="M557 726 c-77 -21 -98 -67 -73 -162 13 -50 24 -67 71 -111 32 -30 53
-57 50 -64 -4 -6 -21 -19 -37 -29 l-30 -18 106 2 c110 1 118 5 49 25 -25 7
-43 18 -43 26 0 8 15 35 34 59 151 198 89 330 -127 272z"></path>
  </g>
  <ellipse style="fill: rgba(0, 0, 0, 0); stroke: rgb(0, 0, 0);" cx="127.876" cy="200.496" rx="60.09" ry="55.481" transform="matrix(1, 0, 0.013408, 1, -1.109423, 8.119144)"></ellipse>
  <text style="20px;" x="217.636" y="219.441" transform="matrix(1.35961, 0, 0, 1.903847, -80.519363, -195.972885)">darkdarcool</text>
</svg>
